<svg xmlns="http://www.w3.org/2000/svg" viewBox="0 0 222 222" width="222" height="222"><rect width="222" height="222" fill="white"/><rect x="12" y="12" width="6" height="6" fill="#2d2d2d"/><rect x="18" y="12" width="6" height="6" fill="#2d2d2d"/><rect x="24" y="12" width="6" height="6" fill="#2d2d2d"/><rect x="30" y="12" width="6" height="6" fill="#2d2d2d"/><rect x="36" y="12" width="6" height="6" fill="#2d2d2d"/><rect x="42" y="12" width="6" height="6" fill="#2d2d2d"/><rect x="48" y="12" width="6" height="6" fill="#2d2d2d"/><rect x="60" y="12" width="6" height="6" fill="#2d2d2d"/><rect x="66" y="12" width="6" height="6" fill="#2d2d2d"/><rect x="84" y="12" width="6" height="6" fill="#2d2d2d"/><rect x="90" y="12" width="6" height="6" fill="#2d2d2d"/><rect x="96" y="12" width="6" height="6" fill="#2d2d2d"/><rect x="102" y="12" width="6" height="6" fill="#2d2d2d"/><rect x="114" y="12" width="6" height="6" fill="#2d2d2d"/><rect x="138" y="12" width="6" height="6" fill="#2d2d2d"/><rect x="144" y="12" width="6" height="6" fill="#2d2d2d"/><rect x="150" y="12" width="6" height="6" fill="#2d2d2d"/><rect x="156" y="12" width="6" height="6" fill="#2d2d2d"/><rect x="168" y="12" width="6" height="6" fill="#2d2d2d"/><rect x="174" y="12" width="6" height="6" fill="#2d2d2d"/><rect x="180" y="12" width="6" height="6" fill="#2d2d2d"/><rect x="186" y="12" width="6" height="6" fill="#2d2d2d"/><rect x="192" y="12" width="6" height="6" fill="#2d2d2d"/><rect x="198" y="12" width="6" height="6" fill="#2d2d2d"/><rect x="204" y="12" width="6" height="6" fill="#2d2d2d"/><rect x="12" y="18" width="6" height="6" fill="#2d2d2d"/><rect x="48" y="18" width="6" height="6" fill="#2d2d2d"/><rect x="78" y="18" width="6" height="6" fill="#2d2d2d"/><rect x="90" y="18" width="6" height="6" fill="#2d2d2d"/><rect x="102" y="18" width="6" height="6" fill="#2d2d2d"/><rect x="108" y="18" width="6" height="6" fill="#2d2d2d"/><rect x="120" y="18" width="6" height="6" fill="#2d2d2d"/><rect x="144" y="18" width="6" height="6" fill="#2d2d2d"/><rect x="150" y="18" width="6" height="6" fill="#2d2d2d"/><rect x="168" y="18" width="6" height="6" fill="#2d2d2d"/><rect x="204" y="18" width="6" height="6" fill="#2d2d2d"/><rect x="12" y="24" width="6" height="6" fill="#2d2d2d"/><rect x="24" y="24" width="6" height="6" fill="#2d2d2d"/><rect x="30" y="24" width="6" height="6" fill="#2d2d2d"/><rect x="36" y="24" width="6" height="6" fill="#2d2d2d"/><rect x="48" y="24" width="6" height="6" fill="#2d2d2d"/><rect x="78" y="24" width="6" height="6" fill="#2d2d2d"/><rect x="84" y="24" width="6" height="6" fill="#2d2d2d"/><rect x="108" y="24" width="6" height="6" fill="#2d2d2d"/><rect x="120" y="24" width="6" height="6" fill="#2d2d2d"/><rect x="144" y="24" width="6" height="6" fill="#2d2d2d"/><rect x="150" y="24" width="6" height="6" fill="#2d2d2d"/><rect x="156" y="24" width="6" height="6" fill="#2d2d2d"/><rect x="168" y="24" width="6" height="6" fill="#2d2d2d"/><rect x="180" y="24" width="6" height="6" fill="#2d2d2d"/><rect x="186" y="24" width="6" height="6" fill="#2d2d2d"/><rect x="192" y="24" width="6" height="6" fill="#2d2d2d"/><rect x="204" y="24" width="6" height="6" fill="#2d2d2d"/><rect x="12" y="30" width="6" height="6" fill="#2d2d2d"/><rect x="24" y="30" width="6" height="6" fill="#2d2d2d"/><rect x="30" y="30" width="6" height="6" fill="#2d2d2d"/><rect x="36" y="30" width="6" height="6" fill="#2d2d2d"/><rect x="48" y="30" width="6" height="6" fill="#2d2d2d"/><rect x="60" y="30" width="6" height="6" fill="#2d2d2d"/><rect x="66" y="30" width="6" height="6" fill="#2d2d2d"/><rect x="78" y="30" width="6" height="6" fill="#2d2d2d"/><rect x="90" y="30" width="6" height="6" fill="#2d2d2d"/><rect x="96" y="30" width="6" height="6" fill="#2d2d2d"/><rect x="102" y="30" width="6" height="6" fill="#2d2d2d"/><rect x="108" y="30" width="6" height="6" fill="#2d2d2d"/><rect x="120" y="30" width="6" height="6" fill="#2d2d2d"/><rect x="126" y="30" width="6" height="6" fill="#2d2d2d"/><rect x="132" y="30" width="6" height="6" fill="#2d2d2d"/><rect x="144" y="30" width="6" height="6" fill="#2d2d2d"/><rect x="156" y="30" width="6" height="6" fill="#2d2d2d"/><rect x="168" y="30" width="6" height="6" fill="#2d2d2d"/><rect x="180" y="30" width="6" height="6" fill="#2d2d2d"/><rect x="186" y="30" width="6" height="6" fill="#2d2d2d"/><rect x="192" y="30" width="6" height="6" fill="#2d2d2d"/><rect x="204" y="30" width="6" height="6" fill="#2d2d2d"/><rect x="12" y="36" width="6" height="6" fill="#2d2d2d"/><rect x="24" y="36" width="6" height="6" fill="#2d2d2d"/><rect x="30" y="36" width="6" height="6" fill="#2d2d2d"/><rect x="36" y="36" width="6" height="6" fill="#2d2d2d"/><rect x="48" y="36" width="6" height="6" fill="#2d2d2d"/><rect x="66" y="36" width="6" height="6" fill="#2d2d2d"/><rect x="78" y="36" width="6" height="6" fill="#2d2d2d"/><rect x="90" y="36" width="6" height="6" fill="#2d2d2d"/><rect x="114" y="36" width="6" height="6" fill="#2d2d2d"/><rect x="120" y="36" width="6" height="6" fill="#2d2d2d"/><rect x="132" y="36" width="6" height="6" fill="#2d2d2d"/><rect x="144" y="36" width="6" height="6" fill="#2d2d2d"/><rect x="156" y="36" width="6" height="6" fill="#2d2d2d"/><rect x="168" y="36" width="6" height="6" fill="#2d2d2d"/><rect x="180" y="36" width="6" height="6" fill="#2d2d2d"/><rect x="186" y="36" width="6" height="6" fill="#2d2d2d"/><rect x="192" y="36" width="6" height="6" fill="#2d2d2d"/><rect x="204" y="36" width="6" height="6" fill="#2d2d2d"/><rect x="12" y="42" width="6" height="6" fill="#2d2d2d"/><rect x="48" y="42" width="6" height="6" fill="#2d2d2d"/><rect x="84" y="42" width="6" height="6" fill="#2d2d2d"/><rect x="90" y="42" width="6" height="6" fill="#2d2d2d"/><rect x="96" y="42" width="6" height="6" fill="#2d2d2d"/><rect x="126" y="42" width="6" height="6" fill="#2d2d2d"/><rect x="150" y="42" width="6" height="6" fill="#2d2d2d"/><rect x="156" y="42" width="6" height="6" fill="#2d2d2d"/><rect x="168" y="42" width="6" height="6" fill="#2d2d2d"/><rect x="204" y="42" width="6" height="6" fill="#2d2d2d"/><rect x="12" y="48" width="6" height="6" fill="#2d2d2d"/><rect x="18" y="48" width="6" height="6" fill="#2d2d2d"/><rect x="24" y="48" width="6" height="6" fill="#2d2d2d"/><rect x="30" y="48" width="6" height="6" fill="#2d2d2d"/><rect x="36" y="48" width="6" height="6" fill="#2d2d2d"/><rect x="42" y="48" width="6" height="6" fill="#2d2d2d"/><rect x="48" y="48" width="6" height="6" fill="#2d2d2d"/><rect x="60" y="48" width="6" height="6" fill="#2d2d2d"/><rect x="72" y="48" width="6" height="6" fill="#2d2d2d"/><rect x="84" y="48" width="6" height="6" fill="#2d2d2d"/><rect x="96" y="48" width="6" height="6" fill="#2d2d2d"/><rect x="108" y="48" width="6" height="6" fill="#2d2d2d"/><rect x="120" y="48" width="6" height="6" fill="#2d2d2d"/><rect x="132" y="48" width="6" height="6" fill="#2d2d2d"/><rect x="144" y="48" width="6" height="6" fill="#2d2d2d"/><rect x="156" y="48" width="6" height="6" fill="#2d2d2d"/><rect x="168" y="48" width="6" height="6" fill="#2d2d2d"/><rect x="174" y="48" width="6" height="6" fill="#2d2d2d"/><rect x="180" y="48" width="6" height="6" fill="#2d2d2d"/><rect x="186" y="48" width="6" height="6" fill="#2d2d2d"/><rect x="192" y="48" width="6" height="6" fill="#2d2d2d"/><rect x="198" y="48" width="6" height="6" fill="#2d2d2d"/><rect x="204" y="48" width="6" height="6" fill="#2d2d2d"/><rect x="72" y="54" width="6" height="6" fill="#2d2d2d"/><rect x="78" y="54" width="6" height="6" fill="#2d2d2d"/><rect x="84" y="54" width="6" height="6" fill="#2d2d2d"/><rect x="90" y="54" width="6" height="6" fill="#2d2d2d"/><rect x="108" y="54" width="6" height="6" fill="#2d2d2d"/><rect x="126" y="54" width="6" height="6" fill="#2d2d2d"/><rect x="138" y="54" width="6" height="6" fill="#2d2d2d"/><rect x="150" y="54" width="6" height="6" fill="#2d2d2d"/><rect x="24" y="60" width="6" height="6" fill="#2d2d2d"/><rect x="36" y="60" width="6" height="6" fill="#2d2d2d"/><rect x="42" y="60" width="6" height="6" fill="#2d2d2d"/><rect x="48" y="60" width="6" height="6" fill="#2d2d2d"/><rect x="60" y="60" width="6" height="6" fill="#2d2d2d"/><rect x="66" y="60" width="6" height="6" fill="#2d2d2d"/><rect x="84" y="60" width="6" height="6" fill="#2d2d2d"/><rect x="90" y="60" width="6" height="6" fill="#2d2d2d"/><rect x="96" y="60" width="6" height="6" fill="#2d2d2d"/><rect x="108" y="60" width="6" height="6" fill="#2d2d2d"/><rect x="114" y="60" width="6" height="6" fill="#2d2d2d"/><rect x="132" y="60" width="6" height="6" fill="#2d2d2d"/><rect x="138" y="60" width="6" height="6" fill="#2d2d2d"/><rect x="162" y="60" width="6" height="6" fill="#2d2d2d"/><rect x="186" y="60" width="6" height="6" fill="#2d2d2d"/><rect x="204" y="60" width="6" height="6" fill="#2d2d2d"/><rect x="12" y="66" width="6" height="6" fill="#2d2d2d"/><rect x="18" y="66" width="6" height="6" fill="#2d2d2d"/><rect x="24" y="66" width="6" height="6" fill="#2d2d2d"/><rect x="30" y="66" width="6" height="6" fill="#2d2d2d"/><rect x="36" y="66" width="6" height="6" fill="#2d2d2d"/><rect x="54" y="66" width="6" height="6" fill="#2d2d2d"/><rect x="72" y="66" width="6" height="6" fill="#2d2d2d"/><rect x="78" y="66" width="6" height="6" fill="#2d2d2d"/><rect x="96" y="66" width="6" height="6" fill="#2d2d2d"/><rect x="108" y="66" width="6" height="6" fill="#2d2d2d"/><rect x="114" y="66" width="6" height="6" fill="#2d2d2d"/><rect x="132" y="66" width="6" height="6" fill="#2d2d2d"/><rect x="156" y="66" width="6" height="6" fill="#2d2d2d"/><rect x="168" y="66" width="6" height="6" fill="#2d2d2d"/><rect x="192" y="66" width="6" height="6" fill="#2d2d2d"/><rect x="198" y="66" width="6" height="6" fill="#2d2d2d"/><rect x="204" y="66" width="6" height="6" fill="#2d2d2d"/><rect x="18" y="72" width="6" height="6" fill="#2d2d2d"/><rect x="24" y="72" width="6" height="6" fill="#2d2d2d"/><rect x="36" y="72" width="6" height="6" fill="#2d2d2d"/><rect x="42" y="72" width="6" height="6" fill="#2d2d2d"/><rect x="48" y="72" width="6" height="6" fill="#2d2d2d"/><rect x="54" y="72" width="6" height="6" fill="#2d2d2d"/><rect x="72" y="72" width="6" height="6" fill="#2d2d2d"/><rect x="84" y="72" width="6" height="6" fill="#2d2d2d"/><rect x="90" y="72" width="6" height="6" fill="#2d2d2d"/><rect x="114" y="72" width="6" height="6" fill="#2d2d2d"/><rect x="138" y="72" width="6" height="6" fill="#2d2d2d"/><rect x="180" y="72" width="6" height="6" fill="#2d2d2d"/><rect x="186" y="72" width="6" height="6" fill="#2d2d2d"/><rect x="192" y="72" width="6" height="6" fill="#2d2d2d"/><rect x="198" y="72" width="6" height="6" fill="#2d2d2d"/><rect x="204" y="72" width="6" height="6" fill="#2d2d2d"/><rect x="30" y="78" width="6" height="6" fill="#2d2d2d"/><rect x="36" y="78" width="6" height="6" fill="#2d2d2d"/><rect x="66" y="78" width="6" height="6" fill="#2d2d2d"/><rect x="90" y="78" width="6" height="6" fill="#2d2d2d"/><rect x="96" y="78" width="6" height="6" fill="#2d2d2d"/><rect x="102" y="78" width="6" height="6" fill="#2d2d2d"/><rect x="114" y="78" width="6" height="6" fill="#2d2d2d"/><rect x="126" y="78" width="6" height="6" fill="#2d2d2d"/><rect x="150" y="78" width="6" height="6" fill="#2d2d2d"/><rect x="162" y="78" width="6" height="6" fill="#2d2d2d"/><rect x="186" y="78" width="6" height="6" fill="#2d2d2d"/><rect x="204" y="78" width="6" height="6" fill="#2d2d2d"/><rect x="12" y="84" width="6" height="6" fill="#2d2d2d"/><rect x="18" y="84" width="6" height="6" fill="#2d2d2d"/><rect x="24" y="84" width="6" height="6" fill="#2d2d2d"/><rect x="30" y="84" width="6" height="6" fill="#2d2d2d"/><rect x="36" y="84" width="6" height="6" fill="#2d2d2d"/><rect x="42" y="84" width="6" height="6" fill="#2d2d2d"/><rect x="48" y="84" width="6" height="6" fill="#2d2d2d"/><rect x="54" y="84" width="6" height="6" fill="#2d2d2d"/><rect x="66" y="84" width="6" height="6" fill="#2d2d2d"/><rect x="72" y="84" width="6" height="6" fill="#2d2d2d"/><rect x="78" y="84" width="6" height="6" fill="#2d2d2d"/><rect x="90" y="84" width="6" height="6" fill="#2d2d2d"/><rect x="102" y="84" width="6" height="6" fill="#2d2d2d"/><rect x="126" y="84" width="6" height="6" fill="#2d2d2d"/><rect x="156" y="84" width="6" height="6" fill="#2d2d2d"/><rect x="162" y="84" width="6" height="6" fill="#2d2d2d"/><rect x="168" y="84" width="6" height="6" fill="#2d2d2d"/><rect x="180" y="84" width="6" height="6" fill="#2d2d2d"/><rect x="198" y="84" width="6" height="6" fill="#2d2d2d"/><rect x="204" y="84" width="6" height="6" fill="#2d2d2d"/><rect x="12" y="90" width="6" height="6" fill="#2d2d2d"/><rect x="18" y="90" width="6" height="6" fill="#2d2d2d"/><rect x="24" y="90" width="6" height="6" fill="#2d2d2d"/><rect x="36" y="90" width="6" height="6" fill="#2d2d2d"/><rect x="42" y="90" width="6" height="6" fill="#2d2d2d"/><rect x="54" y="90" width="6" height="6" fill="#2d2d2d"/><rect x="66" y="90" width="6" height="6" fill="#2d2d2d"/><rect x="84" y="90" width="6" height="6" fill="#2d2d2d"/><rect x="90" y="90" width="6" height="6" fill="#2d2d2d"/><rect x="96" y="90" width="6" height="6" fill="#2d2d2d"/><rect x="108" y="90" width="6" height="6" fill="#2d2d2d"/><rect x="126" y="90" width="6" height="6" fill="#2d2d2d"/><rect x="132" y="90" width="6" height="6" fill="#2d2d2d"/><rect x="168" y="90" width="6" height="6" fill="#2d2d2d"/><rect x="180" y="90" width="6" height="6" fill="#2d2d2d"/><rect x="192" y="90" width="6" height="6" fill="#2d2d2d"/><rect x="198" y="90" width="6" height="6" fill="#2d2d2d"/><rect x="204" y="90" width="6" height="6" fill="#2d2d2d"/><rect x="12" y="96" width="6" height="6" fill="#2d2d2d"/><rect x="18" y="96" width="6" height="6" fill="#2d2d2d"/><rect x="48" y="96" width="6" height="6" fill="#2d2d2d"/><rect x="60" y="96" width="6" height="6" fill="#2d2d2d"/><rect x="72" y="96" width="6" height="6" fill="#2d2d2d"/><rect x="78" y="96" width="6" height="6" fill="#2d2d2d"/><rect x="90" y="96" width="6" height="6" fill="#2d2d2d"/><rect x="102" y="96" width="6" height="6" fill="#2d2d2d"/><rect x="126" y="96" width="6" height="6" fill="#2d2d2d"/><rect x="132" y="96" width="6" height="6" fill="#2d2d2d"/><rect x="138" y="96" width="6" height="6" fill="#2d2d2d"/><rect x="156" y="96" width="6" height="6" fill="#2d2d2d"/><rect x="168" y="96" width="6" height="6" fill="#2d2d2d"/><rect x="198" y="96" width="6" height="6" fill="#2d2d2d"/><rect x="204" y="96" width="6" height="6" fill="#2d2d2d"/><rect x="30" y="102" width="6" height="6" fill="#2d2d2d"/><rect x="42" y="102" width="6" height="6" fill="#2d2d2d"/><rect x="54" y="102" width="6" height="6" fill="#2d2d2d"/><rect x="66" y="102" width="6" height="6" fill="#2d2d2d"/><rect x="72" y="102" width="6" height="6" fill="#2d2d2d"/><rect x="84" y="102" width="6" height="6" fill="#2d2d2d"/><rect x="96" y="102" width="6" height="6" fill="#2d2d2d"/><rect x="102" y="102" width="6" height="6" fill="#2d2d2d"/><rect x="114" y="102" width="6" height="6" fill="#2d2d2d"/><rect x="132" y="102" width="6" height="6" fill="#2d2d2d"/><rect x="138" y="102" width="6" height="6" fill="#2d2d2d"/><rect x="144" y="102" width="6" height="6" fill="#2d2d2d"/><rect x="162" y="102" width="6" height="6" fill="#2d2d2d"/><rect x="168" y="102" width="6" height="6" fill="#2d2d2d"/><rect x="180" y="102" width="6" height="6" fill="#2d2d2d"/><rect x="192" y="102" width="6" height="6" fill="#2d2d2d"/><rect x="198" y="102" width="6" height="6" fill="#2d2d2d"/><rect x="204" y="102" width="6" height="6" fill="#2d2d2d"/><rect x="12" y="108" width="6" height="6" fill="#2d2d2d"/><rect x="18" y="108" width="6" height="6" fill="#2d2d2d"/><rect x="36" y="108" width="6" height="6" fill="#2d2d2d"/><rect x="42" y="108" width="6" height="6" fill="#2d2d2d"/><rect x="48" y="108" width="6" height="6" fill="#2d2d2d"/><rect x="54" y="108" width="6" height="6" fill="#2d2d2d"/><rect x="72" y="108" width="6" height="6" fill="#2d2d2d"/><rect x="84" y="108" width="6" height="6" fill="#2d2d2d"/><rect x="90" y="108" width="6" height="6" fill="#2d2d2d"/><rect x="114" y="108" width="6" height="6" fill="#2d2d2d"/><rect x="120" y="108" width="6" height="6" fill="#2d2d2d"/><rect x="126" y="108" width="6" height="6" fill="#2d2d2d"/><rect x="132" y="108" width="6" height="6" fill="#2d2d2d"/><rect x="138" y="108" width="6" height="6" fill="#2d2d2d"/><rect x="144" y="108" width="6" height="6" fill="#2d2d2d"/><rect x="168" y="108" width="6" height="6" fill="#2d2d2d"/><rect x="174" y="108" width="6" height="6" fill="#2d2d2d"/><rect x="180" y="108" width="6" height="6" fill="#2d2d2d"/><rect x="192" y="108" width="6" height="6" fill="#2d2d2d"/><rect x="12" y="114" width="6" height="6" fill="#2d2d2d"/><rect x="18" y="114" width="6" height="6" fill="#2d2d2d"/><rect x="30" y="114" width="6" height="6" fill="#2d2d2d"/><rect x="36" y="114" width="6" height="6" fill="#2d2d2d"/><rect x="42" y="114" width="6" height="6" fill="#2d2d2d"/><rect x="54" y="114" width="6" height="6" fill="#2d2d2d"/><rect x="60" y="114" width="6" height="6" fill="#2d2d2d"/><rect x="66" y="114" width="6" height="6" fill="#2d2d2d"/><rect x="72" y="114" width="6" height="6" fill="#2d2d2d"/><rect x="78" y="114" width="6" height="6" fill="#2d2d2d"/><rect x="108" y="114" width="6" height="6" fill="#2d2d2d"/><rect x="120" y="114" width="6" height="6" fill="#2d2d2d"/><rect x="132" y="114" width="6" height="6" fill="#2d2d2d"/><rect x="138" y="114" width="6" height="6" fill="#2d2d2d"/><rect x="162" y="114" width="6" height="6" fill="#2d2d2d"/><rect x="168" y="114" width="6" height="6" fill="#2d2d2d"/><rect x="186" y="114" width="6" height="6" fill="#2d2d2d"/><rect x="192" y="114" width="6" height="6" fill="#2d2d2d"/><rect x="198" y="114" width="6" height="6" fill="#2d2d2d"/><rect x="30" y="120" width="6" height="6" fill="#2d2d2d"/><rect x="42" y="120" width="6" height="6" fill="#2d2d2d"/><rect x="48" y="120" width="6" height="6" fill="#2d2d2d"/><rect x="54" y="120" width="6" height="6" fill="#2d2d2d"/><rect x="60" y="120" width="6" height="6" fill="#2d2d2d"/><rect x="78" y="120" width="6" height="6" fill="#2d2d2d"/><rect x="96" y="120" width="6" height="6" fill="#2d2d2d"/><rect x="102" y="120" width="6" height="6" fill="#2d2d2d"/><rect x="108" y="120" width="6" height="6" fill="#2d2d2d"/><rect x="120" y="120" width="6" height="6" fill="#2d2d2d"/><rect x="126" y="120" width="6" height="6" fill="#2d2d2d"/><rect x="132" y="120" width="6" height="6" fill="#2d2d2d"/><rect x="138" y="120" width="6" height="6" fill="#2d2d2d"/><rect x="144" y="120" width="6" height="6" fill="#2d2d2d"/><rect x="168" y="120" width="6" height="6" fill="#2d2d2d"/><rect x="174" y="120" width="6" height="6" fill="#2d2d2d"/><rect x="180" y="120" width="6" height="6" fill="#2d2d2d"/><rect x="192" y="120" width="6" height="6" fill="#2d2d2d"/><rect x="204" y="120" width="6" height="6" fill="#2d2d2d"/><rect x="12" y="126" width="6" height="6" fill="#2d2d2d"/><rect x="24" y="126" width="6" height="6" fill="#2d2d2d"/><rect x="30" y="126" width="6" height="6" fill="#2d2d2d"/><rect x="36" y="126" width="6" height="6" fill="#2d2d2d"/><rect x="42" y="126" width="6" height="6" fill="#2d2d2d"/><rect x="54" y="126" width="6" height="6" fill="#2d2d2d"/><rect x="60" y="126" width="6" height="6" fill="#2d2d2d"/><rect x="66" y="126" width="6" height="6" fill="#2d2d2d"/><rect x="78" y="126" width="6" height="6" fill="#2d2d2d"/><rect x="90" y="126" width="6" height="6" fill="#2d2d2d"/><rect x="102" y="126" width="6" height="6" fill="#2d2d2d"/><rect x="108" y="126" width="6" height="6" fill="#2d2d2d"/><rect x="120" y="126" width="6" height="6" fill="#2d2d2d"/><rect x="126" y="126" width="6" height="6" fill="#2d2d2d"/><rect x="132" y="126" width="6" height="6" fill="#2d2d2d"/><rect x="138" y="126" width="6" height="6" fill="#2d2d2d"/><rect x="144" y="126" width="6" height="6" fill="#2d2d2d"/><rect x="174" y="126" width="6" height="6" fill="#2d2d2d"/><rect x="180" y="126" width="6" height="6" fill="#2d2d2d"/><rect x="198" y="126" width="6" height="6" fill="#2d2d2d"/><rect x="18" y="132" width="6" height="6" fill="#2d2d2d"/><rect x="24" y="132" width="6" height="6" fill="#2d2d2d"/><rect x="30" y="132" width="6" height="6" fill="#2d2d2d"/><rect x="42" y="132" width="6" height="6" fill="#2d2d2d"/><rect x="48" y="132" width="6" height="6" fill="#2d2d2d"/><rect x="60" y="132" width="6" height="6" fill="#2d2d2d"/><rect x="66" y="132" width="6" height="6" fill="#2d2d2d"/><rect x="72" y="132" width="6" height="6" fill="#2d2d2d"/><rect x="78" y="132" width="6" height="6" fill="#2d2d2d"/><rect x="84" y="132" width="6" height="6" fill="#2d2d2d"/><rect x="90" y="132" width="6" height="6" fill="#2d2d2d"/><rect x="96" y="132" width="6" height="6" fill="#2d2d2d"/><rect x="102" y="132" width="6" height="6" fill="#2d2d2d"/><rect x="108" y="132" width="6" height="6" fill="#2d2d2d"/><rect x="114" y="132" width="6" height="6" fill="#2d2d2d"/><rect x="120" y="132" width="6" height="6" fill="#2d2d2d"/><rect x="138" y="132" width="6" height="6" fill="#2d2d2d"/><rect x="156" y="132" width="6" height="6" fill="#2d2d2d"/><rect x="168" y="132" width="6" height="6" fill="#2d2d2d"/><rect x="186" y="132" width="6" height="6" fill="#2d2d2d"/><rect x="24" y="138" width="6" height="6" fill="#2d2d2d"/><rect x="54" y="138" width="6" height="6" fill="#2d2d2d"/><rect x="60" y="138" width="6" height="6" fill="#2d2d2d"/><rect x="66" y="138" width="6" height="6" fill="#2d2d2d"/><rect x="78" y="138" width="6" height="6" fill="#2d2d2d"/><rect x="90" y="138" width="6" height="6" fill="#2d2d2d"/><rect x="96" y="138" width="6" height="6" fill="#2d2d2d"/><rect x="108" y="138" width="6" height="6" fill="#2d2d2d"/><rect x="120" y="138" width="6" height="6" fill="#2d2d2d"/><rect x="126" y="138" width="6" height="6" fill="#2d2d2d"/><rect x="138" y="138" width="6" height="6" fill="#2d2d2d"/><rect x="150" y="138" width="6" height="6" fill="#2d2d2d"/><rect x="156" y="138" width="6" height="6" fill="#2d2d2d"/><rect x="186" y="138" width="6" height="6" fill="#2d2d2d"/><rect x="192" y="138" width="6" height="6" fill="#2d2d2d"/><rect x="198" y="138" width="6" height="6" fill="#2d2d2d"/><rect x="204" y="138" width="6" height="6" fill="#2d2d2d"/><rect x="12" y="144" width="6" height="6" fill="#2d2d2d"/><rect x="30" y="144" width="6" height="6" fill="#2d2d2d"/><rect x="48" y="144" width="6" height="6" fill="#2d2d2d"/><rect x="60" y="144" width="6" height="6" fill="#2d2d2d"/><rect x="66" y="144" width="6" height="6" fill="#2d2d2d"/><rect x="72" y="144" width="6" height="6" fill="#2d2d2d"/><rect x="90" y="144" width="6" height="6" fill="#2d2d2d"/><rect x="96" y="144" width="6" height="6" fill="#2d2d2d"/><rect x="102" y="144" width="6" height="6" fill="#2d2d2d"/><rect x="114" y="144" width="6" height="6" fill="#2d2d2d"/><rect x="132" y="144" width="6" height="6" fill="#2d2d2d"/><rect x="138" y="144" width="6" height="6" fill="#2d2d2d"/><rect x="144" y="144" width="6" height="6" fill="#2d2d2d"/><rect x="150" y="144" width="6" height="6" fill="#2d2d2d"/><rect x="156" y="144" width="6" height="6" fill="#2d2d2d"/><rect x="168" y="144" width="6" height="6" fill="#2d2d2d"/><rect x="180" y="144" width="6" height="6" fill="#2d2d2d"/><rect x="186" y="144" width="6" height="6" fill="#2d2d2d"/><rect x="192" y="144" width="6" height="6" fill="#2d2d2d"/><rect x="198" y="144" width="6" height="6" fill="#2d2d2d"/><rect x="204" y="144" width="6" height="6" fill="#2d2d2d"/><rect x="18" y="150" width="6" height="6" fill="#2d2d2d"/><rect x="24" y="150" width="6" height="6" fill="#2d2d2d"/><rect x="30" y="150" width="6" height="6" fill="#2d2d2d"/><rect x="36" y="150" width="6" height="6" fill="#2d2d2d"/><rect x="42" y="150" width="6" height="6" fill="#2d2d2d"/><rect x="54" y="150" width="6" height="6" fill="#2d2d2d"/><rect x="60" y="150" width="6" height="6" fill="#2d2d2d"/><rect x="84" y="150" width="6" height="6" fill="#2d2d2d"/><rect x="96" y="150" width="6" height="6" fill="#2d2d2d"/><rect x="120" y="150" width="6" height="6" fill="#2d2d2d"/><rect x="132" y="150" width="6" height="6" fill="#2d2d2d"/><rect x="138" y="150" width="6" height="6" fill="#2d2d2d"/><rect x="144" y="150" width="6" height="6" fill="#2d2d2d"/><rect x="156" y="150" width="6" height="6" fill="#2d2d2d"/><rect x="162" y="150" width="6" height="6" fill="#2d2d2d"/><rect x="204" y="150" width="6" height="6" fill="#2d2d2d"/><rect x="12" y="156" width="6" height="6" fill="#2d2d2d"/><rect x="24" y="156" width="6" height="6" fill="#2d2d2d"/><rect x="30" y="156" width="6" height="6" fill="#2d2d2d"/><rect x="42" y="156" width="6" height="6" fill="#2d2d2d"/><rect x="48" y="156" width="6" height="6" fill="#2d2d2d"/><rect x="54" y="156" width="6" height="6" fill="#2d2d2d"/><rect x="84" y="156" width="6" height="6" fill="#2d2d2d"/><rect x="90" y="156" width="6" height="6" fill="#2d2d2d"/><rect x="120" y="156" width="6" height="6" fill="#2d2d2d"/><rect x="126" y="156" width="6" height="6" fill="#2d2d2d"/><rect x="132" y="156" width="6" height="6" fill="#2d2d2d"/><rect x="138" y="156" width="6" height="6" fill="#2d2d2d"/><rect x="150" y="156" width="6" height="6" fill="#2d2d2d"/><rect x="156" y="156" width="6" height="6" fill="#2d2d2d"/><rect x="162" y="156" width="6" height="6" fill="#2d2d2d"/><rect x="168" y="156" width="6" height="6" fill="#2d2d2d"/><rect x="174" y="156" width="6" height="6" fill="#2d2d2d"/><rect x="180" y="156" width="6" height="6" fill="#2d2d2d"/><rect x="186" y="156" width="6" height="6" fill="#2d2d2d"/><rect x="198" y="156" width="6" height="6" fill="#2d2d2d"/><rect x="60" y="162" width="6" height="6" fill="#2d2d2d"/><rect x="78" y="162" width="6" height="6" fill="#2d2d2d"/><rect x="84" y="162" width="6" height="6" fill="#2d2d2d"/><rect x="96" y="162" width="6" height="6" fill="#2d2d2d"/><rect x="102" y="162" width="6" height="6" fill="#2d2d2d"/><rect x="108" y="162" width="6" height="6" fill="#2d2d2d"/><rect x="114" y="162" width="6" height="6" fill="#2d2d2d"/><rect x="126" y="162" width="6" height="6" fill="#2d2d2d"/><rect x="138" y="162" width="6" height="6" fill="#2d2d2d"/><rect x="150" y="162" width="6" height="6" fill="#2d2d2d"/><rect x="156" y="162" width="6" height="6" fill="#2d2d2d"/><rect x="180" y="162" width="6" height="6" fill="#2d2d2d"/><rect x="192" y="162" width="6" height="6" fill="#2d2d2d"/><rect x="198" y="162" width="6" height="6" fill="#2d2d2d"/><rect x="204" y="162" width="6" height="6" fill="#2d2d2d"/><rect x="12" y="168" width="6" height="6" fill="#2d2d2d"/><rect x="18" y="168" width="6" height="6" fill="#2d2d2d"/><rect x="24" y="168" width="6" height="6" fill="#2d2d2d"/><rect x="30" y="168" width="6" height="6" fill="#2d2d2d"/><rect x="36" y="168" width="6" height="6" fill="#2d2d2d"/><rect x="42" y="168" width="6" height="6" fill="#2d2d2d"/><rect x="48" y="168" width="6" height="6" fill="#2d2d2d"/><rect x="84" y="168" width="6" height="6" fill="#2d2d2d"/><rect x="90" y="168" width="6" height="6" fill="#2d2d2d"/><rect x="102" y="168" width="6" height="6" fill="#2d2d2d"/><rect x="108" y="168" width="6" height="6" fill="#2d2d2d"/><rect x="114" y="168" width="6" height="6" fill="#2d2d2d"/><rect x="132" y="168" width="6" height="6" fill="#2d2d2d"/><rect x="144" y="168" width="6" height="6" fill="#2d2d2d"/><rect x="156" y="168" width="6" height="6" fill="#2d2d2d"/><rect x="168" y="168" width="6" height="6" fill="#2d2d2d"/><rect x="180" y="168" width="6" height="6" fill="#2d2d2d"/><rect x="186" y="168" width="6" height="6" fill="#2d2d2d"/><rect x="198" y="168" width="6" height="6" fill="#2d2d2d"/><rect x="204" y="168" width="6" height="6" fill="#2d2d2d"/><rect x="12" y="174" width="6" height="6" fill="#2d2d2d"/><rect x="48" y="174" width="6" height="6" fill="#2d2d2d"/><rect x="60" y="174" width="6" height="6" fill="#2d2d2d"/><rect x="66" y="174" width="6" height="6" fill="#2d2d2d"/><rect x="72" y="174" width="6" height="6" fill="#2d2d2d"/><rect x="78" y="174" width="6" height="6" fill="#2d2d2d"/><rect x="84" y="174" width="6" height="6" fill="#2d2d2d"/><rect x="90" y="174" width="6" height="6" fill="#2d2d2d"/><rect x="102" y="174" width="6" height="6" fill="#2d2d2d"/><rect x="108" y="174" width="6" height="6" fill="#2d2d2d"/><rect x="114" y="174" width="6" height="6" fill="#2d2d2d"/><rect x="138" y="174" width="6" height="6" fill="#2d2d2d"/><rect x="144" y="174" width="6" height="6" fill="#2d2d2d"/><rect x="156" y="174" width="6" height="6" fill="#2d2d2d"/><rect x="180" y="174" width="6" height="6" fill="#2d2d2d"/><rect x="204" y="174" width="6" height="6" fill="#2d2d2d"/><rect x="12" y="180" width="6" height="6" fill="#2d2d2d"/><rect x="24" y="180" width="6" height="6" fill="#2d2d2d"/><rect x="30" y="180" width="6" height="6" fill="#2d2d2d"/><rect x="36" y="180" width="6" height="6" fill="#2d2d2d"/><rect x="48" y="180" width="6" height="6" fill="#2d2d2d"/><rect x="60" y="180" width="6" height="6" fill="#2d2d2d"/><rect x="66" y="180" width="6" height="6" fill="#2d2d2d"/><rect x="72" y="180" width="6" height="6" fill="#2d2d2d"/><rect x="90" y="180" width="6" height="6" fill="#2d2d2d"/><rect x="102" y="180" width="6" height="6" fill="#2d2d2d"/><rect x="114" y="180" width="6" height="6" fill="#2d2d2d"/><rect x="126" y="180" width="6" height="6" fill="#2d2d2d"/><rect x="132" y="180" width="6" height="6" fill="#2d2d2d"/><rect x="144" y="180" width="6" height="6" fill="#2d2d2d"/><rect x="156" y="180" width="6" height="6" fill="#2d2d2d"/><rect x="162" y="180" width="6" height="6" fill="#2d2d2d"/><rect x="168" y="180" width="6" height="6" fill="#2d2d2d"/><rect x="174" y="180" width="6" height="6" fill="#2d2d2d"/><rect x="180" y="180" width="6" height="6" fill="#2d2d2d"/><rect x="186" y="180" width="6" height="6" fill="#2d2d2d"/><rect x="192" y="180" width="6" height="6" fill="#2d2d2d"/><rect x="198" y="180" width="6" height="6" fill="#2d2d2d"/><rect x="12" y="186" width="6" height="6" fill="#2d2d2d"/><rect x="24" y="186" width="6" height="6" fill="#2d2d2d"/><rect x="30" y="186" width="6" height="6" fill="#2d2d2d"/><rect x="36" y="186" width="6" height="6" fill="#2d2d2d"/><rect x="48" y="186" width="6" height="6" fill="#2d2d2d"/><rect x="66" y="186" width="6" height="6" fill="#2d2d2d"/><rect x="90" y="186" width="6" height="6" fill="#2d2d2d"/><rect x="102" y="186" width="6" height="6" fill="#2d2d2d"/><rect x="108" y="186" width="6" height="6" fill="#2d2d2d"/><rect x="144" y="186" width="6" height="6" fill="#2d2d2d"/><rect x="180" y="186" width="6" height="6" fill="#2d2d2d"/><rect x="186" y="186" width="6" height="6" fill="#2d2d2d"/><rect x="12" y="192" width="6" height="6" fill="#2d2d2d"/><rect x="24" y="192" width="6" height="6" fill="#2d2d2d"/><rect x="30" y="192" width="6" height="6" fill="#2d2d2d"/><rect x="36" y="192" width="6" height="6" fill="#2d2d2d"/><rect x="48" y="192" width="6" height="6" fill="#2d2d2d"/><rect x="60" y="192" width="6" height="6" fill="#2d2d2d"/><rect x="66" y="192" width="6" height="6" fill="#2d2d2d"/><rect x="72" y="192" width="6" height="6" fill="#2d2d2d"/><rect x="96" y="192" width="6" height="6" fill="#2d2d2d"/><rect x="120" y="192" width="6" height="6" fill="#2d2d2d"/><rect x="138" y="192" width="6" height="6" fill="#2d2d2d"/><rect x="150" y="192" width="6" height="6" fill="#2d2d2d"/><rect x="162" y="192" width="6" height="6" fill="#2d2d2d"/><rect x="174" y="192" width="6" height="6" fill="#2d2d2d"/><rect x="180" y="192" width="6" height="6" fill="#2d2d2d"/><rect x="186" y="192" width="6" height="6" fill="#2d2d2d"/><rect x="192" y="192" width="6" height="6" fill="#2d2d2d"/><rect x="204" y="192" width="6" height="6" fill="#2d2d2d"/><rect x="12" y="198" width="6" height="6" fill="#2d2d2d"/><rect x="48" y="198" width="6" height="6" fill="#2d2d2d"/><rect x="66" y="198" width="6" height="6" fill="#2d2d2d"/><rect x="72" y="198" width="6" height="6" fill="#2d2d2d"/><rect x="78" y="198" width="6" height="6" fill="#2d2d2d"/><rect x="84" y="198" width="6" height="6" fill="#2d2d2d"/><rect x="96" y="198" width="6" height="6" fill="#2d2d2d"/><rect x="102" y="198" width="6" height="6" fill="#2d2d2d"/><rect x="120" y="198" width="6" height="6" fill="#2d2d2d"/><rect x="132" y="198" width="6" height="6" fill="#2d2d2d"/><rect x="150" y="198" width="6" height="6" fill="#2d2d2d"/><rect x="156" y="198" width="6" height="6" fill="#2d2d2d"/><rect x="174" y="198" width="6" height="6" fill="#2d2d2d"/><rect x="186" y="198" width="6" height="6" fill="#2d2d2d"/><rect x="198" y="198" width="6" height="6" fill="#2d2d2d"/><rect x="12" y="204" width="6" height="6" fill="#2d2d2d"/><rect x="18" y="204" width="6" height="6" fill="#2d2d2d"/><rect x="24" y="204" width="6" height="6" fill="#2d2d2d"/><rect x="30" y="204" width="6" height="6" fill="#2d2d2d"/><rect x="36" y="204" width="6" height="6" fill="#2d2d2d"/><rect x="42" y="204" width="6" height="6" fill="#2d2d2d"/><rect x="48" y="204" width="6" height="6" fill="#2d2d2d"/><rect x="78" y="204" width="6" height="6" fill="#2d2d2d"/><rect x="84" y="204" width="6" height="6" fill="#2d2d2d"/><rect x="90" y="204" width="6" height="6" fill="#2d2d2d"/><rect x="96" y="204" width="6" height="6" fill="#2d2d2d"/><rect x="108" y="204" width="6" height="6" fill="#2d2d2d"/><rect x="132" y="204" width="6" height="6" fill="#2d2d2d"/><rect x="150" y="204" width="6" height="6" fill="#2d2d2d"/><rect x="156" y="204" width="6" height="6" fill="#2d2d2d"/><rect x="162" y="204" width="6" height="6" fill="#2d2d2d"/><rect x="168" y="204" width="6" height="6" fill="#2d2d2d"/><rect x="174" y="204" width="6" height="6" fill="#2d2d2d"/><rect x="180" y="204" width="6" height="6" fill="#2d2d2d"/><rect x="186" y="204" width="6" height="6" fill="#2d2d2d"/><rect x="192" y="204" width="6" height="6" fill="#2d2d2d"/><rect x="198" y="204" width="6" height="6" fill="#2d2d2d"/><rect x="204" y="204" width="6" height="6" fill="#2d2d2d"/></svg>